<svg width="21" height="18" viewBox="0 0 21 18" fill="none" xmlns="http://www.w3.org/2000/svg">
<circle r="2.5" transform="matrix(-1 0 0 1 10.5 9.5)" stroke="#3FB8AE"/>
<path d="M1 7.97061C1 5.88816 2.68816 4.2 4.77061 4.2V4.2C5.36625 4.2 5.90611 3.84944 6.14842 3.30531L6.38252 2.7796C6.86449 1.69728 7.9383 1 9.12307 1H10.5H11.8769C13.0617 1 14.1355 1.69728 14.6175 2.7796L14.8516 3.30531C15.0939 3.84944 15.6337 4.2 16.2294 4.2V4.2C18.3118 4.2 20 5.88816 20 7.97061V12C20 14.7614 17.7614 17 15 17H6C3.23858 17 1 14.7614 1 12V7.97061Z" stroke="#3FB8AE"/>
</svg>
