<svg width="28" height="28" viewBox="0 0 28 28" fill="none" xmlns="http://www.w3.org/2000/svg">
<path d="M23.3333 22.1666V12.2499C23.3333 12.0688 23.2912 11.8902 23.2102 11.7282C23.1292 11.5662 23.0116 11.4253 22.8667 11.3166L14.7 5.19159C14.498 5.04013 14.2524 4.95825 14 4.95825C13.7476 4.95825 13.5019 5.04013 13.3 5.19159L5.13332 11.3166C4.98843 11.4253 4.87082 11.5662 4.78982 11.7282C4.70883 11.8902 4.66666 12.0688 4.66666 12.2499V22.1666C4.66666 22.476 4.78957 22.7728 5.00837 22.9915C5.22716 23.2103 5.5239 23.3333 5.83332 23.3333H10.5C10.8094 23.3333 11.1062 23.2103 11.3249 22.9915C11.5437 22.7728 11.6667 22.476 11.6667 22.1666V18.6666C11.6667 18.3572 11.7896 18.0604 12.0084 17.8416C12.2272 17.6228 12.5239 17.4999 12.8333 17.4999H15.1667C15.4761 17.4999 15.7728 17.6228 15.9916 17.8416C16.2104 18.0604 16.3333 18.3572 16.3333 18.6666V22.1666C16.3333 22.476 16.4562 22.7728 16.675 22.9915C16.8938 23.2103 17.1906 23.3333 17.5 23.3333H22.1667C22.4761 23.3333 22.7728 23.2103 22.9916 22.9915C23.2104 22.7728 23.3333 22.476 23.3333 22.1666Z" stroke="#0851BD" stroke-width="2" stroke-linecap="round" stroke-linejoin="round"/>
</svg>
