<svg width="212" height="200" viewBox="0 0 212 200" fill="none" xmlns="http://www.w3.org/2000/svg">
<ellipse cx="90.5" cy="182.5" rx="90.5" ry="17.5" fill="#F1FBFA"/>
<rect x="45" y="43" width="95" height="114" rx="3" fill="#F1FBFA"/>
<rect x="57" y="55" width="70" height="39" rx="1" fill="#9EEAE3"/>
<rect x="57" y="107" width="70" height="6" rx="3" fill="#9EEAE3"/>
<rect x="57" y="121" width="70" height="7" rx="3.5" fill="#9EEAE3"/>
<path d="M44.7421 105.028L44.7449 118.632L44.7428 132.257L23.3473 132.257L44.7421 105.028Z" fill="#E0E1E1"/>
<path d="M140.005 105V121.715L140 131H161L140.005 105Z" fill="#E0E1E1"/>
<path d="M56.0881 130H23.0603V173.132C22.2832 180.975 29.2125 182.282 32.7743 181.955L153.229 180.975C159.446 181.759 161 174.766 161 171.172V130H127.001C122.338 130 121.172 135.228 121.172 137.842C121.172 142.548 117.934 143.724 116.315 143.724H69.6878C64.2479 143.724 62.8879 139.149 62.8879 136.862C62.8879 131.372 58.3547 130 56.0881 130Z" fill="#D4FCF8"/>
<ellipse cx="182.5" cy="23.5" rx="29.5" ry="23.5" fill="#F1FBFA"/>
<path d="M155.21 44.778L163.299 29.175L170.644 36.1167L155.21 44.778Z" fill="#F1FBFA"/>
<circle cx="193.5" cy="23.5" r="3.5" fill="#9EEAE3"/>
<path d="M172 20L176.33 26.75H167.67L172 20Z" fill="#9EEAE3"/>
<rect x="179" y="20" width="7" height="7" fill="#9EEAE3"/>
</svg>
