<svg width="21" height="22" viewBox="0 0 21 22" fill="none" xmlns="http://www.w3.org/2000/svg">
<circle r="3" transform="matrix(-1 0 0 1 10.4834 11)" stroke="black"/>
<path d="M14.9839 3.9375L15.2339 3.50449L15.2339 3.50449L14.9839 3.9375ZM14.9839 18.0621L14.7339 17.6291L14.7339 17.6291L14.9839 18.0621ZM5.98387 18.0621L5.73387 18.4952L5.73387 18.4952L5.98387 18.0621ZM5.98388 3.9375L6.23388 4.37051L6.23388 4.37051L5.98388 3.9375ZM7.40681 2.01508L7.89394 2.12779L7.40681 2.01508ZM8.02302 1.30504L7.90037 0.82032L8.02302 1.30504ZM1.39027 8.68351L1.07233 9.0694L1.39027 8.68351ZM3.79571 17.7402L3.68093 17.2536L3.79571 17.7402ZM2.88683 17.503L2.50714 17.8283L2.88683 17.503ZM8.0231 20.695L8.14575 20.2103L8.0231 20.695ZM7.40687 19.9848L7.89401 19.8722L7.40687 19.9848ZM13.5609 19.9848L14.048 20.0975L13.5609 19.9848ZM12.9447 20.695L12.822 20.2102L12.9447 20.695ZM18.0809 17.503L17.7012 17.1777L18.0809 17.503ZM17.172 17.7402L17.0572 18.2268L17.172 17.7402ZM19.9275 7.70289L20.3996 7.53809L19.9275 7.70289ZM19.5774 8.68352L19.2595 8.29763L19.5774 8.68352ZM1.39027 13.3165L1.07233 12.9306L1.39027 13.3165ZM17.1718 4.2595L17.0571 3.77285L17.1718 4.2595ZM18.0806 4.49671L18.4603 4.17137L18.0806 4.49671ZM2.8871 4.49667L2.50742 4.17134L2.8871 4.49667ZM19.5774 13.3165L19.8954 12.9306L19.8954 12.9306L19.5774 13.3165ZM19.9275 14.2971L19.4555 14.1323L19.9275 14.2971ZM13.561 2.01511L14.0481 1.90239L13.561 2.01511ZM13.0739 2.12783C13.2847 3.03901 13.8592 3.86548 14.7339 4.37051L15.2339 3.50449C14.6091 3.14373 14.1991 2.55485 14.0481 1.90239L13.0739 2.12783ZM14.7339 4.37051C15.5376 4.83448 16.4498 4.94344 17.2866 4.74616L17.0571 3.77285C16.4584 3.914 15.8083 3.8361 15.2339 3.50449L14.7339 4.37051ZM20.3996 7.53809C19.9645 6.29169 19.3012 5.15281 18.4603 4.17137L17.7009 4.82204C18.4623 5.71059 19.0621 6.74096 19.4555 7.86768L20.3996 7.53809ZM18.9838 11C18.9838 10.2228 19.3379 9.52874 19.8954 9.06941L19.2595 8.29763C18.4813 8.93877 17.9838 9.9115 17.9838 11H18.9838ZM19.8954 12.9306C19.3379 12.4713 18.9838 11.7772 18.9838 11H17.9838C17.9838 12.0885 18.4813 13.0612 19.2595 13.7024L19.8954 12.9306ZM18.4606 17.8283C19.3014 16.8469 19.9645 15.7082 20.3996 14.4619L19.4555 14.1323C19.0622 15.2589 18.4624 16.2892 17.7012 17.1777L18.4606 17.8283ZM15.2339 18.4952C15.8083 18.1635 16.4585 18.0856 17.0572 18.2268L17.2868 17.2536C16.45 17.0562 15.5376 17.1651 14.7339 17.6291L15.2339 18.4952ZM14.048 20.0975C14.199 19.4449 14.609 18.856 15.2339 18.4952L14.7339 17.6291C13.859 18.1342 13.2845 18.9608 13.0738 19.8722L14.048 20.0975ZM10.4838 21.5C11.3747 21.5 12.2403 21.3889 13.0673 21.1797L12.822 20.2102C12.0745 20.3994 11.2913 20.5 10.4838 20.5V21.5ZM7.90045 21.1797C8.72743 21.389 9.59302 21.5 10.4838 21.5V20.5C9.67641 20.5 8.8932 20.3994 8.14575 20.2103L7.90045 21.1797ZM5.73387 18.4952C6.3588 18.856 6.76881 19.445 6.91973 20.0975L7.89401 19.8722C7.68324 18.9609 7.10872 18.1342 6.23387 17.6291L5.73387 18.4952ZM3.9105 18.2269C4.50923 18.0856 5.15944 18.1635 5.73387 18.4952L6.23387 17.6291C5.43016 17.1651 4.51776 17.0562 3.68093 17.2536L3.9105 18.2269ZM0.568076 14.4619C1.00316 15.7082 1.6663 16.847 2.50714 17.8283L3.26652 17.1777C2.50527 16.2892 1.9055 15.2589 1.5122 14.1323L0.568076 14.4619ZM1.98387 11C1.98387 11.7772 1.62981 12.4713 1.07233 12.9306L1.70822 13.7024C2.48637 13.0612 2.98387 12.0885 2.98387 11H1.98387ZM1.07233 9.0694C1.62981 9.52873 1.98387 10.2228 1.98387 11H2.98387C2.98387 9.91149 2.48637 8.93876 1.70822 8.29762L1.07233 9.0694ZM2.50742 4.17134C1.66645 5.15278 1.00321 6.29166 0.568078 7.53807L1.5122 7.86767C1.90555 6.74094 2.5054 5.71056 3.26678 4.82201L2.50742 4.17134ZM5.73388 3.50449C5.15949 3.83611 4.50934 3.914 3.91065 3.77283L3.68114 4.74613C4.51792 4.94345 5.43023 4.8345 6.23388 4.37051L5.73388 3.50449ZM6.91968 1.90237C6.76872 2.55483 6.35873 3.14373 5.73388 3.50449L6.23388 4.37051C7.10863 3.86548 7.68311 3.03899 7.89394 2.12779L6.91968 1.90237ZM10.4838 0.5C9.59299 0.5 8.72737 0.611053 7.90037 0.82032L8.14568 1.78976C8.89315 1.60062 9.67639 1.5 10.4838 1.5V0.5ZM13.0675 0.820365C12.2404 0.611069 11.3747 0.5 10.4838 0.5V1.5C11.2913 1.5 12.0746 1.60064 12.8222 1.7898L13.0675 0.820365ZM7.89394 2.12779C7.94419 1.91063 8.06122 1.81114 8.14568 1.78976L7.90037 0.82032C7.33052 0.964518 7.02159 1.46196 6.91968 1.90237L7.89394 2.12779ZM1.70822 8.29762C1.50947 8.13387 1.48077 7.9577 1.5122 7.86767L0.568078 7.53807C0.348981 8.16567 0.684444 8.74982 1.07233 9.0694L1.70822 8.29762ZM3.68093 17.2536C3.46448 17.3046 3.32338 17.244 3.26652 17.1777L2.50714 17.8283C2.88895 18.274 3.47075 18.3306 3.9105 18.2269L3.68093 17.2536ZM8.14575 20.2103C8.06128 20.1889 7.94425 20.0894 7.89401 19.8722L6.91973 20.0975C7.0216 20.538 7.33053 21.0355 7.90045 21.1797L8.14575 20.2103ZM13.0738 19.8722C13.0235 20.0893 12.9065 20.1889 12.822 20.2102L13.0673 21.1797C13.6372 21.0355 13.9462 20.5379 14.048 20.0975L13.0738 19.8722ZM17.7012 17.1777C17.6443 17.244 17.5032 17.3046 17.2868 17.2536L17.0572 18.2268C17.497 18.3306 18.0787 18.2739 18.4606 17.8283L17.7012 17.1777ZM19.4555 7.86768C19.4869 7.95772 19.4582 8.13388 19.2595 8.29763L19.8954 9.06941C20.2832 8.74982 20.6187 8.16568 20.3996 7.53809L19.4555 7.86768ZM1.5122 14.1323C1.48077 14.0423 1.50947 13.8661 1.70822 13.7024L1.07233 12.9306C0.684443 13.2502 0.34898 13.8343 0.568076 14.4619L1.5122 14.1323ZM17.2866 4.74616C17.503 4.69513 17.6441 4.7557 17.7009 4.82204L18.4603 4.17137C18.0785 3.72582 17.4968 3.66918 17.0571 3.77285L17.2866 4.74616ZM3.26678 4.82201C3.32363 4.75566 3.46471 4.6951 3.68114 4.74613L3.91065 3.77283C3.47094 3.66914 2.88921 3.72577 2.50742 4.17134L3.26678 4.82201ZM19.2595 13.7024C19.4582 13.8661 19.4869 14.0423 19.4555 14.1323L20.3996 14.4619C20.6187 13.8343 20.2832 13.2502 19.8954 12.9306L19.2595 13.7024ZM14.0481 1.90239C13.9462 1.462 13.6373 0.964568 13.0675 0.820365L12.8222 1.7898C12.9066 1.81118 13.0236 1.91067 13.0739 2.12783L14.0481 1.90239Z" fill="black"/>
</svg>
